<svg xmlns="http://www.w3.org/2000/svg" width="193.69" height="35" viewBox="0 0 193.69 35"><rect class="svg__rect" x="0" y="0" width="71.03" height="35" fill="#31C4F3"/><rect class="svg__rect" x="69.03" y="0" width="124.66" height="35" fill="#005384"/><path class="svg__text" d="M17.33 22L14.22 22L14.22 13.47L17.14 13.47Q18.59 13.47 19.34 14.05Q20.10 14.63 20.10 15.78L20.10 15.78Q20.10 16.36 19.78 16.83Q19.47 17.30 18.86 17.56L18.86 17.56Q19.55 17.75 19.93 18.26Q20.31 18.78 20.31 19.51L20.31 19.51Q20.31 20.71 19.53 21.36Q18.76 22 17.33 22L17.33 22ZM15.70 18.15L15.70 20.82L17.35 20.82Q18.04 20.82 18.44 20.47Q18.83 20.13 18.83 19.51L18.83 19.51Q18.83 18.18 17.47 18.15L17.47 18.15L15.70 18.15ZM15.70 14.66L15.70 17.06L17.15 17.06Q17.84 17.06 18.23 16.75Q18.62 16.43 18.62 15.86L18.62 15.86Q18.62 15.23 18.26 14.95Q17.90 14.66 17.14 14.66L17.14 14.66L15.70 14.66ZM24.64 19.16L24.64 19.16L24.64 13.47L26.12 13.47L26.12 19.18Q26.12 20.03 26.55 20.48Q26.98 20.93 27.83 20.93L27.83 20.93Q29.54 20.93 29.54 19.13L29.54 19.13L29.54 13.47L31.02 13.47L31.02 19.17Q31.02 20.53 30.15 21.32Q29.28 22.12 27.83 22.12L27.83 22.12Q26.36 22.12 25.50 21.33Q24.64 20.55 24.64 19.16ZM37.15 22L35.67 22L35.67 13.47L37.15 13.47L37.15 22ZM47.32 22L41.96 22L41.96 13.47L43.44 13.47L43.44 20.82L47.32 20.82L47.32 22ZM53.12 14.66L50.49 14.66L50.49 13.47L57.25 13.47L57.25 14.66L54.59 14.66L54.59 22L53.12 22L53.12 14.66Z" fill="#FFFFFF"/><path class="svg__text" d="M87.19 22L83.22 22L83.22 13.60L87.19 13.60Q88.57 13.60 89.64 14.12Q90.71 14.63 91.30 15.58Q91.88 16.53 91.88 17.80L91.88 17.80Q91.88 19.07 91.30 20.02Q90.71 20.97 89.64 21.48Q88.57 22 87.19 22L87.19 22ZM85.60 15.50L85.60 20.10L87.10 20.10Q88.17 20.10 88.83 19.49Q89.48 18.88 89.48 17.80L89.48 17.80Q89.48 16.72 88.83 16.11Q88.17 15.50 87.10 15.50L87.10 15.50L85.60 15.50ZM98.99 22L96.61 22L96.61 13.60L98.99 13.60L98.99 22ZM106.54 22L104.17 22L104.17 13.60L110.76 13.60L110.76 15.44L106.54 15.44L106.54 17.28L110.25 17.28L110.25 19.12L106.54 19.12L106.54 22ZM117.73 22L115.35 22L115.35 13.60L121.94 13.60L121.94 15.44L117.73 15.44L117.73 17.28L121.44 17.28L121.44 19.12L117.73 19.12L117.73 22ZM133.28 22L126.54 22L126.54 13.60L133.13 13.60L133.13 15.44L128.89 15.44L128.89 16.85L132.62 16.85L132.62 18.63L128.89 18.63L128.89 20.17L133.28 20.17L133.28 22ZM140.46 22L138.09 22L138.09 13.60L141.93 13.60Q143.07 13.60 143.91 13.98Q144.75 14.35 145.20 15.06Q145.66 15.76 145.66 16.71L145.66 16.71Q145.66 17.62 145.23 18.30Q144.81 18.98 144.01 19.36L144.01 19.36L145.83 22L143.28 22L141.76 19.77L140.46 19.77L140.46 22ZM140.46 15.47L140.46 17.93L141.78 17.93Q142.51 17.93 142.89 17.61Q143.26 17.29 143.26 16.71L143.26 16.71Q143.26 16.12 142.89 15.79Q142.51 15.47 141.78 15.47L141.78 15.47L140.46 15.47ZM157.19 22L150.45 22L150.45 13.60L157.04 13.60L157.04 15.44L152.80 15.44L152.80 16.85L156.54 16.85L156.54 18.63L152.80 18.63L152.80 20.17L157.19 20.17L157.19 22ZM164.33 22L162.00 22L162.00 13.60L163.95 13.60L167.66 18.07L167.66 13.60L169.99 13.60L169.99 22L168.04 22L164.33 17.52L164.33 22ZM176.94 15.48L174.36 15.48L174.36 13.60L181.88 13.60L181.88 15.48L179.32 15.48L179.32 22L176.94 22L176.94 15.48Z" fill="#FFFFFF" x="82.03"/></svg>